# xmcd CD database file
#
# Track frame offsets:
#	150
#	17687
#	37172
#	50797
#	67860
#
# Disc length: 1162 seconds
#
# Revision: 4
# Processed by: cddbd v1.5.1PL0 Copyright (c) Steve Scherf et al.
# Submitted via: CDex 1.51
#
DISCID=3f048805
DTITLE=大塚愛 - 黒毛和牛上塩タン焼680円
DYEAR=2005
DGENRE=Pop
TTITLE0=黒毛和牛上塩タン焼680円
TTITLE1=本マグロ中トロ三〇〇円（緑色）
TTITLE2=つくね70円
TTITLE3=黒毛和牛上塩タン焼680円 -Instrumental-
TTITLE4=本マグロ中トロ三〇〇円（緑色） -Instrumental-
EXTD=YEAR: 2005
EXTT0=
EXTT1=
EXTT2=
EXTT3=
EXTT4=
PLAYORDER=
